# xmcd CD database file
#
# Track frame offsets:
#	150
#	34422
#	71856
#	93365
#	127054
#	150145
#	180869
#	204533
#	217410
#
# Disc length: 3363 seconds
#
# Revision: 0
# Processed by: cddbd v1.5.1PL0 Copyright (c) Steve Scherf et al.
# Submitted via: CDex 1.51
#
DISCID=800d2109
DTITLE=Ricardo Nolé - De Profundis
DYEAR=2004
DGENRE=Jazz
TTITLE0=Candombe Para Figari
TTITLE1=Segundo Encuentro
TTITLE2=Agora Sí Bochón!
TTITLE3=2 De Septiembre
TTITLE4=Templando
TTITLE5=Ariadna
TTITLE6=Nolecidio 
TTITLE7=Canción Para Renacer 
TTITLE8=Re Menor 7
EXTD=YEAR: 2004
EXTT0=
EXTT1=
EXTT2=
EXTT3=
EXTT4=
EXTT5=
EXTT6=
EXTT7=
EXTT8=
PLAYORDER=
